<svg xmlns="http://www.w3.org/2000/svg" width="377.953" height="100mm" viewBox="0 0 100 100"><path d="M30.686 58.482h-4.66v8.154h4.66M26.027 62.56h3.494" fill="none" stroke="#000" stroke-width="2.32964" stroke-linecap="round" stroke-linejoin="round" stroke-miterlimit="10"/><path d="M52.03 66.636l-3.49-8.142-3.49 8.142M46.214 64.686h4.652" fill="none" stroke="#000" stroke-width="2.32634" stroke-linecap="round" stroke-linejoin="round" stroke-miterlimit="10"/><path d="M78.246 58.508v8.128M82.89 58.508v8.128" fill="none" stroke="#000" stroke-width="2.32234" stroke-linecap="round" stroke-linejoin="round" stroke-miterlimit="10"/><path d="M82.89 62.557h-4.644" fill="none" stroke="#000" stroke-width="2.3237989999999997" stroke-linecap="round" stroke-linejoin="round" stroke-miterlimit="10"/><g><path d="M14.936 66.636v-8.129l5.806 8.129v-8.129" fill="none" stroke="#000" stroke-width="2.32246" stroke-linecap="round" stroke-linejoin="round" stroke-miterlimit="10"/></g><g><path d="M39.326 59.231a2.912 2.912 0 0 0-4.845 2.18v2.33a2.913 2.913 0 0 0 5.825 0v-1.182h-2.33" fill="none" stroke="#000" stroke-width="2.32968" stroke-linecap="round" stroke-linejoin="round" stroke-miterlimit="10"/></g><g><path d="M57.733 66.636v-8.141h3.104a2.029 2.029 0 0 1 0 4.055h-3.104M60.852 62.55l1.764 4.086" fill="none" stroke="#000" stroke-width="2.326" stroke-linecap="round" stroke-linejoin="round" stroke-miterlimit="10"/></g><g><path d="M72.961 58.482h-4.66v8.154h4.66M68.302 62.56h3.494" fill="none" stroke="#000" stroke-width="2.32964" stroke-linecap="round" stroke-linejoin="round" stroke-miterlimit="10"/></g><g><g transform="matrix(.43766 0 0 .43766 25.442 24.562)"><circle r="23" cy="36.051" cx="35.034" fill="#fcea2b"/><path d="M25.533 27.49c-1.265-3.355-6.44-3.57-6.117 1.317.044.649.281 1.272.642 1.814l5.318 6.422 5.22-6.266c.58-.696.923-1.578.906-2.485-.086-4.353-5.051-4.035-6.127-.804M44.835 27.49c-1.255-3.355-6.387-3.57-6.066 1.317.043.649.28 1.272.636 1.814l5.274 6.422 5.178-6.266c.575-.696.915-1.578.897-2.485-.085-4.353-5.009-4.035-6.076-.804" fill="#d22f27"/><path fill="#fff" d="M39.103 52.777l5.473-2.657 2.116-2.848.699-3.85-6.82.759-18.013-.758 2.347 6.697 5.718 2.657z"/></g><g stroke-miterlimit="10" fill="none" stroke="#000" stroke-width="2" stroke-linecap="round" stroke-linejoin="round" transform="matrix(.43766 0 0 .43766 25.442 24.562)"><circle r="23" cy="36.051" cx="35.034"/><path d="M22.558 42.724s12.757 3.098 24.893.067M47.62 42.724c0 5.63-4.178 10.105-12.554 10.105-8.374 0-12.607-4.489-12.607-10.105M25.533 27.49c-1.265-3.355-6.44-3.57-6.117 1.317.044.649.281 1.272.642 1.814l5.318 6.422v0l5.22-6.266c.58-.696.923-1.578.906-2.485-.086-4.353-5.051-4.035-6.127-.804M44.835 27.49c-1.255-3.355-6.387-3.57-6.066 1.317.043.649.28 1.272.636 1.814l5.274 6.422v0l5.178-6.266c.575-.696.915-1.578.897-2.485-.085-4.353-5.009-4.035-6.076-.804"/></g><path d="M67.953 15.761v5.305c0 .61-.49 1.09-1.09 1.09H48.474c-3.094 0-3.824 2.68-3.987 4.172a1.085 1.085 0 0 1-1.078.959h-5.47c-.598 0-1.078-.469-1.089-1.068-.012-3.05.894-11.547 11.58-11.547h5.633V9.824h-5.175V6.327h14.435v3.497h-5.175v4.848h8.715c.6 0 1.09.49 1.09 1.089z" stroke-miterlimit="10" fill="none" stroke="#000" stroke-width="2.1783696" stroke-linecap="round" stroke-linejoin="round"/></g><g><path d="M23.395 80.716v-8.141l-3.49 6.978-3.488-6.978v8.141" fill="none" stroke="#000" stroke-width="2.3261" stroke-linecap="round" stroke-linejoin="round" stroke-miterlimit="10"/><path d="M31.85 80.716h0a2.912 2.912 0 0 1-2.912-2.912v-2.33a2.912 2.912 0 0 1 5.824 0v2.33a2.912 2.912 0 0 1-2.912 2.912z" fill="none" stroke="#000" stroke-width="2.32968" stroke-linecap="round" stroke-linejoin="round" stroke-miterlimit="10"/><path d="M44.154 72.169v5.233a2.907 2.907 0 0 1-4.853 2.161" fill="none" stroke="#000" stroke-width="2.326" stroke-linecap="round" stroke-linejoin="round" stroke-miterlimit="10"/><path d="M11.132 72.562H6.473v8.154h4.66M6.473 76.64h3.495" fill="none" stroke="#000" stroke-width="2.32964" stroke-linecap="round" stroke-linejoin="round" stroke-miterlimit="10"/><path d="M49.817 72.119v8.597" fill="none" stroke="#000" stroke-width="1.8600921" stroke-linecap="round" stroke-linejoin="round" stroke-miterlimit="10"/></g><g><path d="M90.623 72.575v8.141h3.49" fill="none" stroke="#000" stroke-width="2.32608" stroke-linecap="round" stroke-linejoin="round" stroke-miterlimit="10"/><path d="M86.405 80.716v-8.142l-3.489 6.979-3.49-6.979v8.142" fill="none" stroke="#000" stroke-width="2.32618" stroke-linecap="round" stroke-linejoin="round" stroke-miterlimit="10"/><path d="M71.305 72.587h4.645M73.628 72.587v8.129" fill="none" stroke="#000" stroke-width="2.32244" stroke-linecap="round" stroke-linejoin="round" stroke-miterlimit="10"/><g><path d="M62.656 72.588v8.128M67.301 72.588v8.128" fill="none" stroke="#000" stroke-width="2.32234" stroke-linecap="round" stroke-linejoin="round" stroke-miterlimit="10"/><path d="M67.301 76.637h-4.645" fill="none" stroke="#000" stroke-width="2.3237989999999997" stroke-linecap="round" stroke-linejoin="round" stroke-miterlimit="10"/></g></g><g><path d="M20.65 94.058v-8.141h3.104a2.029 2.029 0 0 1 0 4.055H20.65" fill="none" stroke="#000" stroke-width="2.3261" stroke-linecap="round" stroke-linejoin="round" stroke-miterlimit="10"/><path d="M29.612 85.46v8.598" fill="none" stroke="#000" stroke-width="1.8600921" stroke-linecap="round" stroke-linejoin="round" stroke-miterlimit="10"/><path d="M34.357 94.058v-8.141h3.104a2.029 2.029 0 0 1 0 4.055h-3.104" fill="none" stroke="#000" stroke-width="2.3261" stroke-linecap="round" stroke-linejoin="round" stroke-miterlimit="10"/><path d="M47.98 85.904h-4.66v8.154h4.66M43.32 89.981h3.494" fill="none" stroke="#000" stroke-width="2.32964" stroke-linecap="round" stroke-linejoin="round" stroke-miterlimit="10"/><path d="M51.67 85.917v8.14h3.489" fill="none" stroke="#000" stroke-width="2.32608" stroke-linecap="round" stroke-linejoin="round" stroke-miterlimit="10"/><path d="M59.376 85.46v8.598" fill="none" stroke="#000" stroke-width="1.8600921" stroke-linecap="round" stroke-linejoin="round" stroke-miterlimit="10"/><path d="M63.587 94.058v-8.129l5.806 8.129v-8.129" fill="none" stroke="#000" stroke-width="2.32246" stroke-linecap="round" stroke-linejoin="round" stroke-miterlimit="10"/><g><path d="M77.743 85.904h-4.66v8.154h4.66M73.084 89.981h3.494" fill="none" stroke="#000" stroke-width="2.32964" stroke-linecap="round" stroke-linejoin="round" stroke-miterlimit="10"/></g></g></svg>